solid OpenSCAD_Model
  facet normal -1 0 0
    outer loop
      vertex 0 0 0
      vertex 0 0 1
      vertex 0 54 0
    endloop
  endfacet
  facet normal -1 0 0
    outer loop
      vertex 0 54 0
      vertex 0 0 1
      vertex 0 54 1
    endloop
  endfacet
  facet normal 0 -1 0
    outer loop
      vertex 0 0 1
      vertex 0 0 0
      vertex 85 0 0
    endloop
  endfacet
  facet normal 0 -1 0
    outer loop
      vertex 1 0 1
      vertex 0 0 1
      vertex 85 0 0
    endloop
  endfacet
  facet normal 0 -1 0
    outer loop
      vertex 12 0 1
      vertex 1 0 1
      vertex 85 0 0
    endloop
  endfacet
  facet normal 0 -1 0
    outer loop
      vertex 85 0 1
      vertex 44.5 0 1
      vertex 85 0 0
    endloop
  endfacet
  facet normal 0 -1 0
    outer loop
      vertex 44.5 0 1
      vertex 37 0 1
      vertex 85 0 0
    endloop
  endfacet
  facet normal 0 -1 0
    outer loop
      vertex 37 0 1
      vertex 12 0 1
      vertex 85 0 0
    endloop
  endfacet
  facet normal 0 -1 0
    outer loop
      vertex 12 0 2
      vertex 1 0 1
      vertex 12 0 1
    endloop
  endfacet
  facet normal 0 -1 0
    outer loop
      vertex 1 0 2
      vertex 1 0 1
      vertex 12 0 2
    endloop
  endfacet
  facet normal 0 0 -1
    outer loop
      vertex 0 0 0
      vertex 0 54 0
      vertex 85 0 0
    endloop
  endfacet
  facet normal 0 0 -1
    outer loop
      vertex 85 0 0
      vertex 0 54 0
      vertex 85 54 0
    endloop
  endfacet
  facet normal 0 1 0
    outer loop
      vertex 0 54 0
      vertex 0 54 1
      vertex 85 54 0
    endloop
  endfacet
  facet normal 0 1 0
    outer loop
      vertex 85 54 0
      vertex 0 54 1
      vertex 69 54 1
    endloop
  endfacet
  facet normal 0 1 0
    outer loop
      vertex 78 54 1
      vertex 69 54 1
      vertex 69 54 7
    endloop
  endfacet
  facet normal 0 1 0
    outer loop
      vertex 85 54 0
      vertex 69 54 1
      vertex 78 54 1
    endloop
  endfacet
  facet normal 0 1 0
    outer loop
      vertex 85 54 1
      vertex 85 54 0
      vertex 78 54 1
    endloop
  endfacet
  facet normal 0 1 0
    outer loop
      vertex 78 54 1
      vertex 69 54 7
      vertex 78 54 7
    endloop
  endfacet
  facet normal 0 0 1
    outer loop
      vertex 0 54 1
      vertex 0 0 1
      vertex 1 0 1
    endloop
  endfacet
  facet normal 0 0 1
    outer loop
      vertex 12 15 1
      vertex 0 54 1
      vertex 1 15 1
    endloop
  endfacet
  facet normal 0 0 1
    outer loop
      vertex 1 15 1
      vertex 0 54 1
      vertex 1 0 1
    endloop
  endfacet
  facet normal 0 0 1
    outer loop
      vertex 37 0 1
      vertex 0 54 1
      vertex 12 15 1
    endloop
  endfacet
  facet normal 0 0 1
    outer loop
      vertex 37 0 1
      vertex 12 15 1
      vertex 12 0 1
    endloop
  endfacet
  facet normal 0 0 1
    outer loop
      vertex 37 4.25 1
      vertex 0 54 1
      vertex 37 0 1
    endloop
  endfacet
  facet normal 0 0 1
    outer loop
      vertex 44.5 4.25 1
      vertex 0 54 1
      vertex 37 4.25 1
    endloop
  endfacet
  facet normal 0 0 1
    outer loop
      vertex 85 0 1
      vertex 0 54 1
      vertex 44.5 4.25 1
    endloop
  endfacet
  facet normal 0 0 1
    outer loop
      vertex 85 0 1
      vertex 44.5 4.25 1
      vertex 44.5 0 1
    endloop
  endfacet
  facet normal 0 0 1
    outer loop
      vertex 69 42 1
      vertex 0 54 1
      vertex 85 0 1
    endloop
  endfacet
  facet normal 0 0 1
    outer loop
      vertex 85 54 1
      vertex 78 54 1
      vertex 85 0 1
    endloop
  endfacet
  facet normal 0 0 1
    outer loop
      vertex 78 54 1
      vertex 78 42 1
      vertex 85 0 1
    endloop
  endfacet
  facet normal 0 0 1
    outer loop
      vertex 78 42 1
      vertex 69 42 1
      vertex 85 0 1
    endloop
  endfacet
  facet normal 0 0 1
    outer loop
      vertex 69 42 1
      vertex 69 54 1
      vertex 0 54 1
    endloop
  endfacet
  facet normal -1 0 0
    outer loop
      vertex 1 0 1
      vertex 1 0 2
      vertex 1 15 1
    endloop
  endfacet
  facet normal -1 0 0
    outer loop
      vertex 1 15 1
      vertex 1 0 2
      vertex 1 15 2
    endloop
  endfacet
  facet normal 0 0 1
    outer loop
      vertex 1 15 2
      vertex 1 0 2
      vertex 12 0 2
    endloop
  endfacet
  facet normal 0 0 1
    outer loop
      vertex 12 15 2
      vertex 1 15 2
      vertex 12 0 2
    endloop
  endfacet
  facet normal 1 0 0
    outer loop
      vertex 12 0 2
      vertex 12 0 1
      vertex 12 15 1
    endloop
  endfacet
  facet normal 1 0 0
    outer loop
      vertex 12 15 2
      vertex 12 0 2
      vertex 12 15 1
    endloop
  endfacet
  facet normal -1 0 0
    outer loop
      vertex 37 -1 1
      vertex 37 -1 4
      vertex 37 0 1
    endloop
  endfacet
  facet normal -1 0 0
    outer loop
      vertex 37 0 1
      vertex 37 -1 4
      vertex 37 4.25 4
    endloop
  endfacet
  facet normal -1 0 0
    outer loop
      vertex 37 0 1
      vertex 37 4.25 4
      vertex 37 4.25 1
    endloop
  endfacet
  facet normal 0 0 -1
    outer loop
      vertex 44.5 0 1
      vertex 44.5 -1 1
      vertex 37 0 1
    endloop
  endfacet
  facet normal 0 0 -1
    outer loop
      vertex 37 0 1
      vertex 44.5 -1 1
      vertex 37 -1 1
    endloop
  endfacet
  facet normal 1 0 0
    outer loop
      vertex 44.5 -1 4
      vertex 44.5 -1 1
      vertex 44.5 0 1
    endloop
  endfacet
  facet normal 1 0 0
    outer loop
      vertex 44.5 4.25 4
      vertex 44.5 -1 4
      vertex 44.5 4.25 1
    endloop
  endfacet
  facet normal 1 0 0
    outer loop
      vertex 44.5 4.25 1
      vertex 44.5 -1 4
      vertex 44.5 0 1
    endloop
  endfacet
  facet normal 1 0 0
    outer loop
      vertex 85 0 1
      vertex 85 0 0
      vertex 85 54 0
    endloop
  endfacet
  facet normal 1 0 0
    outer loop
      vertex 85 54 1
      vertex 85 0 1
      vertex 85 54 0
    endloop
  endfacet
  facet normal 1 0 0
    outer loop
      vertex 78 42 7
      vertex 78 42 1
      vertex 78 54 1
    endloop
  endfacet
  facet normal 1 0 0
    outer loop
      vertex 78 54 7
      vertex 78 42 7
      vertex 78 54 1
    endloop
  endfacet
  facet normal 0 0 1
    outer loop
      vertex 69 54 7
      vertex 69 42 7
      vertex 78 42 7
    endloop
  endfacet
  facet normal 0 0 1
    outer loop
      vertex 78 54 7
      vertex 69 54 7
      vertex 78 42 7
    endloop
  endfacet
  facet normal -1 0 0
    outer loop
      vertex 69 42 1
      vertex 69 42 7
      vertex 69 54 1
    endloop
  endfacet
  facet normal -1 0 0
    outer loop
      vertex 69 54 1
      vertex 69 42 7
      vertex 69 54 7
    endloop
  endfacet
  facet normal 0 -1 0
    outer loop
      vertex 69 42 7
      vertex 69 42 1
      vertex 78 42 1
    endloop
  endfacet
  facet normal 0 -1 0
    outer loop
      vertex 78 42 7
      vertex 69 42 7
      vertex 78 42 1
    endloop
  endfacet
  facet normal 0 1 0
    outer loop
      vertex 37 4.25 1
      vertex 37 4.25 4
      vertex 44.5 4.25 1
    endloop
  endfacet
  facet normal 0 1 0
    outer loop
      vertex 44.5 4.25 1
      vertex 37 4.25 4
      vertex 44.5 4.25 4
    endloop
  endfacet
  facet normal 0 1 0
    outer loop
      vertex 1 15 1
      vertex 1 15 2
      vertex 12 15 1
    endloop
  endfacet
  facet normal 0 1 0
    outer loop
      vertex 12 15 1
      vertex 1 15 2
      vertex 12 15 2
    endloop
  endfacet
  facet normal 0 0 1
    outer loop
      vertex 37 4.25 4
      vertex 37 -1 4
      vertex 44.5 -1 4
    endloop
  endfacet
  facet normal 0 0 1
    outer loop
      vertex 44.5 4.25 4
      vertex 37 4.25 4
      vertex 44.5 -1 4
    endloop
  endfacet
  facet normal 0 -1 0
    outer loop
      vertex 37 -1 4
      vertex 37 -1 1
      vertex 44.5 -1 1
    endloop
  endfacet
  facet normal 0 -1 0
    outer loop
      vertex 44.5 -1 4
      vertex 37 -1 4
      vertex 44.5 -1 1
    endloop
  endfacet
  facet normal -1 0 0
    outer loop
      vertex 18 -1 2
      vertex 18 -1 7
      vertex 18 8 2
    endloop
  endfacet
  facet normal -1 0 0
    outer loop
      vertex 18 8 2
      vertex 18 -1 7
      vertex 18 8 7
    endloop
  endfacet
  facet normal 0 -1 0
    outer loop
      vertex 18 -1 7
      vertex 18 -1 2
      vertex 32.5 -1 2
    endloop
  endfacet
  facet normal 0 -1 0
    outer loop
      vertex 32.5 -1 7
      vertex 18 -1 7
      vertex 32.5 -1 2
    endloop
  endfacet
  facet normal 0 0 -1
    outer loop
      vertex 18 -1 2
      vertex 18 8 2
      vertex 32.5 -1 2
    endloop
  endfacet
  facet normal 0 0 -1
    outer loop
      vertex 32.5 -1 2
      vertex 18 8 2
      vertex 32.5 8 2
    endloop
  endfacet
  facet normal 0 1 0
    outer loop
      vertex 18 8 2
      vertex 18 8 7
      vertex 32.5 8 2
    endloop
  endfacet
  facet normal 0 1 0
    outer loop
      vertex 32.5 8 2
      vertex 18 8 7
      vertex 32.5 8 7
    endloop
  endfacet
  facet normal 0 0 1
    outer loop
      vertex 18 8 7
      vertex 18 -1 7
      vertex 32.5 -1 7
    endloop
  endfacet
  facet normal 0 0 1
    outer loop
      vertex 32.5 8 7
      vertex 18 8 7
      vertex 32.5 -1 7
    endloop
  endfacet
  facet normal 1 0 0
    outer loop
      vertex 32.5 -1 7
      vertex 32.5 -1 2
      vertex 32.5 8 2
    endloop
  endfacet
  facet normal 1 0 0
    outer loop
      vertex 32.5 8 7
      vertex 32.5 -1 7
      vertex 32.5 8 2
    endloop
  endfacet
  facet normal -1 0 0
    outer loop
      vertex 49 0 2
      vertex 49 0 9
      vertex 49 14 2
    endloop
  endfacet
  facet normal -1 0 0
    outer loop
      vertex 49 14 2
      vertex 49 0 9
      vertex 49 14 9
    endloop
  endfacet
  facet normal 0 -1 0
    outer loop
      vertex 49 0 9
      vertex 49 0 2
      vertex 63 0 2
    endloop
  endfacet
  facet normal 0 -1 0
    outer loop
      vertex 63 0 9
      vertex 49 0 9
      vertex 63 0 2
    endloop
  endfacet
  facet normal 0 0 -1
    outer loop
      vertex 49 0 2
      vertex 49 14 2
      vertex 63 0 2
    endloop
  endfacet
  facet normal 0 0 -1
    outer loop
      vertex 63 0 2
      vertex 49 14 2
      vertex 63 14 2
    endloop
  endfacet
  facet normal 0 1 0
    outer loop
      vertex 49 14 2
      vertex 49 14 9
      vertex 63 14 2
    endloop
  endfacet
  facet normal 0 1 0
    outer loop
      vertex 63 14 2
      vertex 49 14 9
      vertex 63 14 9
    endloop
  endfacet
  facet normal 0 0 1
    outer loop
      vertex 49 14 9
      vertex 49 0 9
      vertex 63 0 9
    endloop
  endfacet
  facet normal 0 0 1
    outer loop
      vertex 63 14 9
      vertex 49 14 9
      vertex 63 0 9
    endloop
  endfacet
  facet normal 1 0 0
    outer loop
      vertex 63 0 9
      vertex 63 0 2
      vertex 63 14 2
    endloop
  endfacet
  facet normal 1 0 0
    outer loop
      vertex 63 14 9
      vertex 63 0 9
      vertex 63 14 2
    endloop
  endfacet
  facet normal -1 0 0
    outer loop
      vertex 69 0 2
      vertex 69 0 9
      vertex 69 14 2
    endloop
  endfacet
  facet normal -1 0 0
    outer loop
      vertex 69 14 2
      vertex 69 0 9
      vertex 69 14 9
    endloop
  endfacet
  facet normal 0 -1 0
    outer loop
      vertex 69 0 9
      vertex 69 0 2
      vertex 83 0 2
    endloop
  endfacet
  facet normal 0 -1 0
    outer loop
      vertex 83 0 9
      vertex 69 0 9
      vertex 83 0 2
    endloop
  endfacet
  facet normal 0 0 -1
    outer loop
      vertex 69 0 2
      vertex 69 14 2
      vertex 83 0 2
    endloop
  endfacet
  facet normal 0 0 -1
    outer loop
      vertex 83 0 2
      vertex 69 14 2
      vertex 83 14 2
    endloop
  endfacet
  facet normal 0 1 0
    outer loop
      vertex 69 14 2
      vertex 69 14 9
      vertex 83 14 2
    endloop
  endfacet
  facet normal 0 1 0
    outer loop
      vertex 83 14 2
      vertex 69 14 9
      vertex 83 14 9
    endloop
  endfacet
  facet normal 0 0 1
    outer loop
      vertex 69 14 9
      vertex 69 0 9
      vertex 83 0 9
    endloop
  endfacet
  facet normal 0 0 1
    outer loop
      vertex 83 14 9
      vertex 69 14 9
      vertex 83 0 9
    endloop
  endfacet
  facet normal 1 0 0
    outer loop
      vertex 83 0 9
      vertex 83 0 2
      vertex 83 14 2
    endloop
  endfacet
  facet normal 1 0 0
    outer loop
      vertex 83 14 9
      vertex 83 0 9
      vertex 83 14 2
    endloop
  endfacet
endsolid OpenSCAD_Model
